<svg width="1882" height="483" viewBox="0 0 1882 483" fill="none" xmlns="http://www.w3.org/2000/svg">
<rect width="1882" height="483" fill="#FAFAFF"/>
<path d="M689.202 191.4C686.989 191.4 684.936 191.12 683.042 190.56C681.149 189.973 679.549 189.187 678.242 188.2L679.802 184.16C681.109 185.093 682.536 185.813 684.082 186.32C685.656 186.827 687.362 187.08 689.202 187.08C691.309 187.08 692.842 186.733 693.802 186.04C694.762 185.32 695.242 184.4 695.242 183.28C695.242 182.347 694.896 181.613 694.202 181.08C693.536 180.547 692.376 180.107 690.722 179.76L686.322 178.84C681.309 177.773 678.802 175.2 678.802 171.12C678.802 169.36 679.269 167.827 680.202 166.52C681.136 165.213 682.429 164.2 684.082 163.48C685.736 162.76 687.642 162.4 689.802 162.4C691.722 162.4 693.522 162.693 695.202 163.28C696.882 163.84 698.282 164.64 699.402 165.68L697.842 169.52C695.629 167.653 692.936 166.72 689.762 166.72C687.922 166.72 686.482 167.107 685.442 167.88C684.402 168.653 683.882 169.667 683.882 170.92C683.882 171.88 684.202 172.653 684.842 173.24C685.482 173.8 686.576 174.24 688.122 174.56L692.482 175.48C695.122 176.04 697.082 176.92 698.362 178.12C699.669 179.32 700.322 180.92 700.322 182.92C700.322 184.6 699.869 186.08 698.962 187.36C698.056 188.64 696.762 189.64 695.082 190.36C693.429 191.053 691.469 191.4 689.202 191.4ZM712.117 191.4C707.317 191.4 704.917 188.707 704.917 183.32V171.44H709.917V183.4C709.917 184.787 710.197 185.813 710.757 186.48C711.317 187.147 712.21 187.48 713.437 187.48C714.77 187.48 715.863 187.027 716.717 186.12C717.57 185.187 717.997 183.96 717.997 182.44V171.44H722.997V191H718.117V188.08C716.81 190.293 714.81 191.4 712.117 191.4ZM740.281 191.4C738.841 191.4 737.547 191.08 736.401 190.44C735.281 189.8 734.441 188.933 733.881 187.84V191H729.001V162.8H734.001V174.32C734.587 173.333 735.427 172.547 736.521 171.96C737.641 171.347 738.894 171.04 740.281 171.04C742.014 171.04 743.521 171.453 744.801 172.28C746.081 173.107 747.081 174.28 747.801 175.8C748.521 177.293 748.881 179.093 748.881 181.2C748.881 183.28 748.521 185.093 747.801 186.64C747.081 188.16 746.067 189.333 744.761 190.16C743.481 190.987 741.987 191.4 740.281 191.4ZM738.881 187.6C740.374 187.6 741.574 187.067 742.481 186C743.387 184.907 743.841 183.307 743.841 181.2C743.841 179.067 743.387 177.48 742.481 176.44C741.574 175.373 740.374 174.84 738.881 174.84C737.387 174.84 736.187 175.373 735.281 176.44C734.374 177.48 733.921 179.067 733.921 181.2C733.921 183.307 734.374 184.907 735.281 186C736.187 187.067 737.387 187.6 738.881 187.6ZM760.945 191.4C759.292 191.4 757.745 191.2 756.305 190.8C754.865 190.4 753.665 189.827 752.705 189.08L753.985 185.8C754.972 186.467 756.078 186.987 757.305 187.36C758.532 187.707 759.758 187.88 760.985 187.88C762.265 187.88 763.212 187.667 763.825 187.24C764.465 186.787 764.785 186.2 764.785 185.48C764.785 184.36 763.958 183.64 762.305 183.32L758.305 182.56C754.918 181.92 753.225 180.16 753.225 177.28C753.225 176 753.572 174.893 754.265 173.96C754.985 173.027 755.972 172.307 757.225 171.8C758.478 171.293 759.918 171.04 761.545 171.04C762.932 171.04 764.265 171.24 765.545 171.64C766.825 172.013 767.918 172.587 768.825 173.36L767.465 176.64C766.692 176 765.758 175.493 764.665 175.12C763.598 174.747 762.572 174.56 761.585 174.56C760.278 174.56 759.305 174.787 758.665 175.24C758.052 175.693 757.745 176.293 757.745 177.04C757.745 178.213 758.505 178.933 760.025 179.2L764.025 179.96C765.758 180.28 767.065 180.867 767.945 181.72C768.852 182.573 769.305 183.72 769.305 185.16C769.305 187.107 768.545 188.64 767.025 189.76C765.505 190.853 763.478 191.4 760.945 191.4ZM783.156 191.4C781.103 191.4 779.316 190.987 777.796 190.16C776.276 189.307 775.103 188.107 774.276 186.56C773.45 185.013 773.036 183.2 773.036 181.12C773.036 179.04 773.45 177.253 774.276 175.76C775.103 174.24 776.276 173.08 777.796 172.28C779.316 171.453 781.103 171.04 783.156 171.04C784.41 171.04 785.65 171.24 786.876 171.64C788.103 172.04 789.116 172.6 789.916 173.32L788.436 176.8C787.743 176.187 786.956 175.72 786.076 175.4C785.223 175.08 784.396 174.92 783.596 174.92C781.863 174.92 780.516 175.467 779.556 176.56C778.623 177.627 778.156 179.16 778.156 181.16C778.156 183.133 778.623 184.693 779.556 185.84C780.516 186.96 781.863 187.52 783.596 187.52C784.37 187.52 785.196 187.36 786.076 187.04C786.956 186.72 787.743 186.24 788.436 185.6L789.916 189.12C789.116 189.813 788.09 190.373 786.836 190.8C785.61 191.2 784.383 191.4 783.156 191.4ZM793.784 191V171.44H798.664V174.88C799.624 172.56 801.677 171.28 804.824 171.04L806.344 170.92L806.664 175.16L803.784 175.44C800.504 175.76 798.864 177.44 798.864 180.48V191H793.784ZM809.928 167.24V162.36H815.528V167.24H809.928ZM810.248 191V171.44H815.248V191H810.248ZM832.523 191.4C831.083 191.4 829.79 191.08 828.643 190.44C827.523 189.8 826.683 188.933 826.123 187.84V191H821.243V162.8H826.243V174.32C826.83 173.333 827.67 172.547 828.763 171.96C829.883 171.347 831.136 171.04 832.523 171.04C834.256 171.04 835.763 171.453 837.043 172.28C838.323 173.107 839.323 174.28 840.043 175.8C840.763 177.293 841.123 179.093 841.123 181.2C841.123 183.28 840.763 185.093 840.043 186.64C839.323 188.16 838.31 189.333 837.003 190.16C835.723 190.987 834.23 191.4 832.523 191.4ZM831.123 187.6C832.616 187.6 833.816 187.067 834.723 186C835.63 184.907 836.083 183.307 836.083 181.2C836.083 179.067 835.63 177.48 834.723 176.44C833.816 175.373 832.616 174.84 831.123 174.84C829.63 174.84 828.43 175.373 827.523 176.44C826.616 177.48 826.163 179.067 826.163 181.2C826.163 183.307 826.616 184.907 827.523 186C828.43 187.067 829.63 187.6 831.123 187.6ZM855.667 191.4C853.454 191.4 851.547 190.987 849.947 190.16C848.347 189.333 847.107 188.16 846.227 186.64C845.374 185.12 844.947 183.32 844.947 181.24C844.947 179.213 845.361 177.44 846.187 175.92C847.041 174.4 848.201 173.213 849.667 172.36C851.161 171.48 852.854 171.04 854.747 171.04C857.521 171.04 859.707 171.92 861.307 173.68C862.934 175.44 863.747 177.84 863.747 180.88V182.36H849.747C850.121 185.853 852.121 187.6 855.747 187.6C856.841 187.6 857.934 187.44 859.027 187.12C860.121 186.773 861.121 186.24 862.027 185.52L863.427 188.88C862.494 189.653 861.321 190.267 859.907 190.72C858.494 191.173 857.081 191.4 855.667 191.4ZM854.947 174.44C853.481 174.44 852.294 174.893 851.387 175.8C850.481 176.707 849.934 177.933 849.747 179.48H859.587C859.481 177.853 859.027 176.613 858.227 175.76C857.454 174.88 856.361 174.44 854.947 174.44ZM880.568 191V162.8H884.408L899.568 182.48V162.8H904.328V191H900.528L885.328 171.24V191H880.568ZM920.45 191.4C918.237 191.4 916.33 190.987 914.73 190.16C913.13 189.333 911.89 188.16 911.01 186.64C910.157 185.12 909.73 183.32 909.73 181.24C909.73 179.213 910.143 177.44 910.97 175.92C911.823 174.4 912.983 173.213 914.45 172.36C915.943 171.48 917.637 171.04 919.53 171.04C922.303 171.04 924.49 171.92 926.09 173.68C927.717 175.44 928.53 177.84 928.53 180.88V182.36H914.53C914.903 185.853 916.903 187.6 920.53 187.6C921.623 187.6 922.717 187.44 923.81 187.12C924.903 186.773 925.903 186.24 926.81 185.52L928.21 188.88C927.277 189.653 926.103 190.267 924.69 190.72C923.277 191.173 921.863 191.4 920.45 191.4ZM919.73 174.44C918.263 174.44 917.077 174.893 916.17 175.8C915.263 176.707 914.717 177.933 914.53 179.48H924.37C924.263 177.853 923.81 176.613 923.01 175.76C922.237 174.88 921.143 174.44 919.73 174.44ZM938.377 191L930.657 171.44H935.777L940.777 185.2L945.817 171.44H949.337L954.377 185.28L959.377 171.44H964.217L956.537 191H952.177L947.417 178.4L942.737 191H938.377ZM974.648 191.4C972.995 191.4 971.448 191.2 970.008 190.8C968.568 190.4 967.368 189.827 966.408 189.08L967.688 185.8C968.675 186.467 969.782 186.987 971.008 187.36C972.235 187.707 973.462 187.88 974.688 187.88C975.968 187.88 976.915 187.667 977.528 187.24C978.168 186.787 978.488 186.2 978.488 185.48C978.488 184.36 977.662 183.64 976.008 183.32L972.008 182.56C968.622 181.92 966.928 180.16 966.928 177.28C966.928 176 967.275 174.893 967.968 173.96C968.688 173.027 969.675 172.307 970.928 171.8C972.182 171.293 973.622 171.04 975.248 171.04C976.635 171.04 977.968 171.24 979.248 171.64C980.528 172.013 981.622 172.587 982.528 173.36L981.168 176.64C980.395 176 979.462 175.493 978.368 175.12C977.302 174.747 976.275 174.56 975.288 174.56C973.982 174.56 973.008 174.787 972.368 175.24C971.755 175.693 971.448 176.293 971.448 177.04C971.448 178.213 972.208 178.933 973.728 179.2L977.728 179.96C979.462 180.28 980.768 180.867 981.648 181.72C982.555 182.573 983.008 183.72 983.008 185.16C983.008 187.107 982.248 188.64 980.728 189.76C979.208 190.853 977.182 191.4 974.648 191.4ZM994.62 191.4C992.3 191.4 990.58 190.773 989.46 189.52C988.366 188.24 987.82 186.373 987.82 183.92V162.8H992.82V183.68C992.82 186.08 993.833 187.28 995.86 187.28C996.153 187.28 996.446 187.267 996.74 187.24C997.033 187.213 997.313 187.16 997.58 187.08L997.5 191.04C996.54 191.28 995.58 191.4 994.62 191.4ZM1010.84 191.4C1008.62 191.4 1006.72 190.987 1005.12 190.16C1003.52 189.333 1002.28 188.16 1001.4 186.64C1000.54 185.12 1000.12 183.32 1000.12 181.24C1000.12 179.213 1000.53 177.44 1001.36 175.92C1002.21 174.4 1003.37 173.213 1004.84 172.36C1006.33 171.48 1008.02 171.04 1009.92 171.04C1012.69 171.04 1014.88 171.92 1016.48 173.68C1018.1 175.44 1018.92 177.84 1018.92 180.88V182.36H1004.92C1005.29 185.853 1007.29 187.6 1010.92 187.6C1012.01 187.6 1013.1 187.44 1014.2 187.12C1015.29 186.773 1016.29 186.24 1017.2 185.52L1018.6 188.88C1017.66 189.653 1016.49 190.267 1015.08 190.72C1013.66 191.173 1012.25 191.4 1010.84 191.4ZM1010.12 174.44C1008.65 174.44 1007.46 174.893 1006.56 175.8C1005.65 176.707 1005.1 177.933 1004.92 179.48H1014.76C1014.65 177.853 1014.2 176.613 1013.4 175.76C1012.62 174.88 1011.53 174.44 1010.12 174.44ZM1032.56 191.4C1027.39 191.4 1024.8 188.84 1024.8 183.72V175.2H1021.04V171.44H1024.8V165.6H1029.8V171.44H1035.72V175.2H1029.8V183.44C1029.8 184.72 1030.08 185.68 1030.64 186.32C1031.2 186.96 1032.11 187.28 1033.36 187.28C1033.73 187.28 1034.12 187.24 1034.52 187.16C1034.92 187.053 1035.33 186.947 1035.76 186.84L1036.52 190.52C1036.04 190.787 1035.43 191 1034.68 191.16C1033.96 191.32 1033.25 191.4 1032.56 191.4ZM1047.58 191.4C1042.4 191.4 1039.82 188.84 1039.82 183.72V175.2H1036.06V171.44H1039.82V165.6H1044.82V171.44H1050.74V175.2H1044.82V183.44C1044.82 184.72 1045.1 185.68 1045.66 186.32C1046.22 186.96 1047.12 187.28 1048.38 187.28C1048.75 187.28 1049.14 187.24 1049.54 187.16C1049.94 187.053 1050.35 186.947 1050.78 186.84L1051.54 190.52C1051.06 190.787 1050.44 191 1049.7 191.16C1048.98 191.32 1048.27 191.4 1047.58 191.4ZM1064.21 191.4C1062 191.4 1060.09 190.987 1058.49 190.16C1056.89 189.333 1055.65 188.16 1054.77 186.64C1053.92 185.12 1053.49 183.32 1053.49 181.24C1053.49 179.213 1053.91 177.44 1054.73 175.92C1055.59 174.4 1056.75 173.213 1058.21 172.36C1059.71 171.48 1061.4 171.04 1063.29 171.04C1066.07 171.04 1068.25 171.92 1069.85 173.68C1071.48 175.44 1072.29 177.84 1072.29 180.88V182.36H1058.29C1058.67 185.853 1060.67 187.6 1064.29 187.6C1065.39 187.6 1066.48 187.44 1067.57 187.12C1068.67 186.773 1069.67 186.24 1070.57 185.52L1071.97 188.88C1071.04 189.653 1069.87 190.267 1068.45 190.72C1067.04 191.173 1065.63 191.4 1064.21 191.4ZM1063.49 174.44C1062.03 174.44 1060.84 174.893 1059.93 175.8C1059.03 176.707 1058.48 177.933 1058.29 179.48H1068.13C1068.03 177.853 1067.57 176.613 1066.77 175.76C1066 174.88 1064.91 174.44 1063.49 174.44ZM1077.05 191V171.44H1081.93V174.88C1082.89 172.56 1084.95 171.28 1088.09 171.04L1089.61 170.92L1089.93 175.16L1087.05 175.44C1083.77 175.76 1082.13 177.44 1082.13 180.48V191H1077.05ZM1114.54 191.4C1111.53 191.4 1109.14 190.707 1107.38 189.32C1105.65 187.907 1104.78 186.067 1104.78 183.8C1104.78 181.987 1105.29 180.413 1106.3 179.08C1107.31 177.72 1108.71 176.507 1110.5 175.44L1110.74 175.32C1109.7 174.227 1108.95 173.187 1108.5 172.2C1108.05 171.187 1107.82 170.16 1107.82 169.12C1107.82 167.12 1108.53 165.507 1109.94 164.28C1111.38 163.027 1113.27 162.4 1115.62 162.4C1117.81 162.4 1119.54 162.96 1120.82 164.08C1122.1 165.173 1122.74 166.667 1122.74 168.56C1122.74 170 1122.33 171.333 1121.5 172.56C1120.7 173.76 1119.35 174.92 1117.46 176.04L1122.86 181.8C1123.37 180.733 1123.77 179.547 1124.06 178.24C1124.38 176.907 1124.58 175.52 1124.66 174.08H1128.82C1128.66 178.213 1127.66 181.76 1125.82 184.72L1132.06 191H1125.98L1123.1 187.96C1121.95 189.027 1120.65 189.867 1119.18 190.48C1117.71 191.093 1116.17 191.4 1114.54 191.4ZM1115.62 165.96C1114.66 165.96 1113.89 166.24 1113.3 166.8C1112.71 167.333 1112.42 168.067 1112.42 169C1112.42 169.693 1112.58 170.347 1112.9 170.96C1113.25 171.547 1113.85 172.32 1114.7 173.28C1116.11 172.453 1117.1 171.707 1117.66 171.04C1118.25 170.373 1118.54 169.613 1118.54 168.76C1118.54 167.853 1118.27 167.16 1117.74 166.68C1117.21 166.2 1116.5 165.96 1115.62 165.96ZM1114.82 187.44C1116.98 187.44 1118.81 186.693 1120.3 185.2L1113.5 178.16C1112.14 178.933 1111.17 179.72 1110.58 180.52C1110.02 181.32 1109.74 182.28 1109.74 183.4C1109.74 184.653 1110.17 185.64 1111.02 186.36C1111.9 187.08 1113.17 187.44 1114.82 187.44ZM1155.62 198.6C1153.81 198.6 1152.1 198.387 1150.5 197.96C1148.93 197.56 1147.54 196.933 1146.34 196.08L1147.78 192.6C1148.9 193.347 1150.1 193.893 1151.38 194.24C1152.66 194.613 1153.94 194.8 1155.22 194.8C1158.8 194.8 1160.58 193.08 1160.58 189.64V186.96C1160.02 188.053 1159.16 188.92 1157.98 189.56C1156.84 190.2 1155.56 190.52 1154.14 190.52C1152.38 190.52 1150.85 190.12 1149.54 189.32C1148.24 188.493 1147.22 187.347 1146.5 185.88C1145.78 184.413 1145.42 182.707 1145.42 180.76C1145.42 178.813 1145.78 177.12 1146.5 175.68C1147.22 174.213 1148.24 173.08 1149.54 172.28C1150.85 171.453 1152.38 171.04 1154.14 171.04C1155.61 171.04 1156.92 171.373 1158.06 172.04C1159.21 172.68 1160.05 173.547 1160.58 174.64V171.44H1165.46V189.04C1165.46 192.213 1164.62 194.6 1162.94 196.2C1161.26 197.8 1158.82 198.6 1155.62 198.6ZM1155.5 186.72C1157.05 186.72 1158.28 186.187 1159.18 185.12C1160.09 184.053 1160.54 182.6 1160.54 180.76C1160.54 178.92 1160.09 177.48 1159.18 176.44C1158.28 175.373 1157.05 174.84 1155.5 174.84C1153.96 174.84 1152.73 175.373 1151.82 176.44C1150.92 177.48 1150.46 178.92 1150.46 180.76C1150.46 182.6 1150.92 184.053 1151.82 185.12C1152.73 186.187 1153.96 186.72 1155.5 186.72ZM1181.08 191.4C1178.87 191.4 1176.96 190.987 1175.36 190.16C1173.76 189.333 1172.52 188.16 1171.64 186.64C1170.79 185.12 1170.36 183.32 1170.36 181.24C1170.36 179.213 1170.78 177.44 1171.6 175.92C1172.46 174.4 1173.62 173.213 1175.08 172.36C1176.58 171.48 1178.27 171.04 1180.16 171.04C1182.94 171.04 1185.12 171.92 1186.72 173.68C1188.35 175.44 1189.16 177.84 1189.16 180.88V182.36H1175.16C1175.54 185.853 1177.54 187.6 1181.16 187.6C1182.26 187.6 1183.35 187.44 1184.44 187.12C1185.54 186.773 1186.54 186.24 1187.44 185.52L1188.84 188.88C1187.91 189.653 1186.74 190.267 1185.32 190.72C1183.91 191.173 1182.5 191.4 1181.08 191.4ZM1180.36 174.44C1178.9 174.44 1177.71 174.893 1176.8 175.8C1175.9 176.707 1175.35 177.933 1175.16 179.48H1185C1184.9 177.853 1184.44 176.613 1183.64 175.76C1182.87 174.88 1181.78 174.44 1180.36 174.44ZM1202.81 191.4C1197.63 191.4 1195.05 188.84 1195.05 183.72V175.2H1191.29V171.44H1195.05V165.6H1200.05V171.44H1205.97V175.2H1200.05V183.44C1200.05 184.72 1200.33 185.68 1200.89 186.32C1201.45 186.96 1202.35 187.28 1203.61 187.28C1203.98 187.28 1204.37 187.24 1204.77 187.16C1205.17 187.053 1205.58 186.947 1206.01 186.84L1206.77 190.52C1206.29 190.787 1205.67 191 1204.93 191.16C1204.21 191.32 1203.5 191.4 1202.81 191.4Z" fill="#2D3150"/>
<path d="M824.918 242.288C822.494 242.288 820.418 241.772 818.69 240.74C816.962 239.684 815.63 238.184 814.694 236.24C813.782 234.296 813.326 231.98 813.326 229.292C813.326 226.628 813.782 224.324 814.694 222.38C815.63 220.436 816.962 218.948 818.69 217.916C820.418 216.86 822.494 216.332 824.918 216.332C826.67 216.332 828.278 216.62 829.742 217.196C831.23 217.748 832.49 218.564 833.522 219.644L832.55 221.48C831.422 220.376 830.246 219.584 829.022 219.104C827.822 218.624 826.466 218.384 824.954 218.384C821.978 218.384 819.686 219.344 818.078 221.264C816.494 223.16 815.702 225.836 815.702 229.292C815.702 232.772 816.494 235.472 818.078 237.392C819.686 239.288 821.978 240.236 824.954 240.236C826.466 240.236 827.822 239.996 829.022 239.516C830.246 239.036 831.422 238.244 832.55 237.14L833.522 238.976C832.49 240.056 831.23 240.884 829.742 241.46C828.278 242.012 826.67 242.288 824.918 242.288ZM844.422 242.288C842.79 242.288 841.374 241.928 840.174 241.208C838.974 240.464 838.038 239.42 837.366 238.076C836.718 236.708 836.394 235.1 836.394 233.252C836.394 231.428 836.718 229.844 837.366 228.5C838.038 227.132 838.974 226.076 840.174 225.332C841.374 224.588 842.79 224.216 844.422 224.216C846.078 224.216 847.506 224.588 848.706 225.332C849.906 226.076 850.83 227.132 851.478 228.5C852.15 229.844 852.486 231.428 852.486 233.252C852.486 235.1 852.15 236.708 851.478 238.076C850.83 239.42 849.906 240.464 848.706 241.208C847.506 241.928 846.078 242.288 844.422 242.288ZM844.422 240.452C846.198 240.452 847.614 239.828 848.67 238.58C849.726 237.308 850.254 235.532 850.254 233.252C850.254 230.972 849.726 229.208 848.67 227.96C847.614 226.712 846.198 226.088 844.422 226.088C842.646 226.088 841.23 226.712 840.174 227.96C839.142 229.208 838.626 230.972 838.626 233.252C838.626 235.532 839.142 237.308 840.174 238.58C841.23 239.828 842.646 240.452 844.422 240.452ZM857.953 242V224.54H860.113V227.6C861.193 225.344 863.029 224.216 865.621 224.216C868.405 224.216 870.169 225.428 870.913 227.852C871.417 226.724 872.185 225.836 873.217 225.188C874.249 224.54 875.449 224.216 876.817 224.216C880.681 224.216 882.613 226.472 882.613 230.984V242H880.417V231.164C880.417 229.436 880.105 228.164 879.481 227.348C878.881 226.532 877.861 226.124 876.421 226.124C874.885 226.124 873.661 226.664 872.749 227.744C871.837 228.8 871.381 230.24 871.381 232.064V242H869.185V231.164C869.185 229.436 868.873 228.164 868.249 227.348C867.649 226.532 866.641 226.124 865.225 226.124C863.665 226.124 862.429 226.664 861.517 227.744C860.605 228.8 860.149 230.24 860.149 232.064V242H857.953ZM889.082 248.48V224.54H891.278V227.816C891.806 226.712 892.598 225.836 893.654 225.188C894.734 224.54 895.982 224.216 897.398 224.216C898.958 224.216 900.314 224.588 901.466 225.332C902.642 226.076 903.542 227.12 904.166 228.464C904.814 229.808 905.138 231.404 905.138 233.252C905.138 235.1 904.814 236.708 904.166 238.076C903.542 239.42 902.642 240.464 901.466 241.208C900.314 241.928 898.958 242.288 897.398 242.288C895.982 242.288 894.734 241.976 893.654 241.352C892.598 240.728 891.806 239.864 891.278 238.76V248.48H889.082ZM897.074 240.452C898.85 240.452 900.266 239.828 901.322 238.58C902.378 237.308 902.906 235.532 902.906 233.252C902.906 230.972 902.378 229.208 901.322 227.96C900.266 226.712 898.85 226.088 897.074 226.088C895.298 226.088 893.882 226.712 892.826 227.96C891.77 229.208 891.242 230.972 891.242 233.252C891.242 235.532 891.77 237.308 892.826 238.58C893.882 239.828 895.298 240.452 897.074 240.452ZM915.909 242.288C914.733 242.288 913.677 242.06 912.741 241.604C911.829 241.148 911.097 240.524 910.545 239.732C910.017 238.94 909.753 238.052 909.753 237.068C909.753 235.772 910.077 234.764 910.725 234.044C911.373 233.3 912.465 232.772 914.001 232.46C915.537 232.148 917.649 231.992 920.337 231.992H921.453V230.696C921.453 229.088 921.129 227.924 920.481 227.204C919.833 226.46 918.801 226.088 917.385 226.088C916.329 226.088 915.309 226.244 914.325 226.556C913.365 226.868 912.369 227.36 911.337 228.032L910.473 226.34C911.385 225.692 912.465 225.176 913.713 224.792C914.961 224.408 916.173 224.216 917.349 224.216C919.461 224.216 921.021 224.756 922.029 225.836C923.061 226.916 923.577 228.572 923.577 230.804V242H921.489V238.868C921.009 239.948 920.277 240.788 919.293 241.388C918.333 241.988 917.205 242.288 915.909 242.288ZM916.197 240.524C917.229 240.524 918.129 240.284 918.897 239.804C919.689 239.3 920.313 238.616 920.769 237.752C921.225 236.888 921.453 235.904 921.453 234.8V233.612H920.373C918.213 233.612 916.521 233.708 915.297 233.9C914.097 234.092 913.257 234.428 912.777 234.908C912.297 235.388 912.057 236.048 912.057 236.888C912.057 237.968 912.429 238.844 913.173 239.516C913.917 240.188 914.925 240.524 916.197 240.524ZM930.038 242V224.54H932.198V227.672C932.774 226.52 933.602 225.656 934.682 225.08C935.762 224.504 936.962 224.216 938.282 224.216C942.434 224.216 944.51 226.472 944.51 230.984V242H942.314V231.164C942.314 229.436 941.966 228.164 941.27 227.348C940.574 226.532 939.47 226.124 937.958 226.124C936.23 226.124 934.838 226.664 933.782 227.744C932.75 228.8 932.234 230.228 932.234 232.028V242H930.038ZM952.958 248.48L955.838 241.928L948.422 224.54H950.87L957.026 239.588L963.254 224.54H965.63L955.334 248.48H952.958ZM979.95 242V216.62H981.714L997.77 238.256V216.62H999.822V242H998.094L982.002 220.328V242H979.95ZM1014.34 242.288C1011.65 242.288 1009.53 241.496 1007.97 239.912C1006.43 238.304 1005.67 236.108 1005.67 233.324C1005.67 231.524 1006.01 229.94 1006.71 228.572C1007.41 227.204 1008.37 226.136 1009.59 225.368C1010.84 224.6 1012.27 224.216 1013.87 224.216C1016.2 224.216 1018.01 224.972 1019.31 226.484C1020.61 227.996 1021.25 230.072 1021.25 232.712V233.72H1007.83C1007.9 235.88 1008.49 237.548 1009.59 238.724C1010.72 239.876 1012.28 240.452 1014.27 240.452C1015.35 240.452 1016.36 240.284 1017.29 239.948C1018.25 239.612 1019.19 239.048 1020.1 238.256L1020.97 239.912C1020.2 240.656 1019.21 241.244 1018.01 241.676C1016.81 242.084 1015.59 242.288 1014.34 242.288ZM1013.91 225.98C1012.09 225.98 1010.66 226.556 1009.63 227.708C1008.62 228.836 1008.03 230.3 1007.86 232.1H1019.27C1019.23 230.18 1018.75 228.68 1017.83 227.6C1016.92 226.52 1015.61 225.98 1013.91 225.98ZM1030.85 242L1024.51 224.54H1026.85L1032 239.408L1037.36 224.54H1039.52L1044.78 239.444L1050.04 224.54H1052.3L1045.93 242H1043.66L1038.41 227.384L1033.12 242H1030.85ZM1062.35 242.288C1061.06 242.288 1059.81 242.096 1058.61 241.712C1057.43 241.328 1056.46 240.776 1055.69 240.056L1056.49 238.436C1057.37 239.156 1058.32 239.684 1059.33 240.02C1060.34 240.332 1061.37 240.488 1062.43 240.488C1063.91 240.488 1065.03 240.224 1065.77 239.696C1066.54 239.144 1066.93 238.388 1066.93 237.428C1066.93 236.684 1066.67 236.096 1066.17 235.664C1065.67 235.232 1064.87 234.884 1063.79 234.62L1060.66 233.9C1057.71 233.228 1056.23 231.704 1056.23 229.328C1056.23 227.792 1056.83 226.556 1058.03 225.62C1059.23 224.684 1060.82 224.216 1062.79 224.216C1063.99 224.216 1065.11 224.42 1066.17 224.828C1067.23 225.212 1068.09 225.776 1068.76 226.52L1067.9 228.14C1067.2 227.444 1066.41 226.928 1065.52 226.592C1064.63 226.232 1063.71 226.052 1062.75 226.052C1061.36 226.052 1060.28 226.34 1059.51 226.916C1058.77 227.492 1058.39 228.272 1058.39 229.256C1058.39 230 1058.62 230.6 1059.08 231.056C1059.53 231.512 1060.28 231.86 1061.31 232.1L1064.44 232.82C1066 233.18 1067.17 233.72 1067.93 234.44C1068.7 235.136 1069.09 236.084 1069.09 237.284C1069.09 238.844 1068.47 240.068 1067.25 240.956C1066.03 241.844 1064.39 242.288 1062.35 242.288Z" fill="#2D3150"/>
<path d="M901.771 122.24C900.443 122.24 899.211 122.072 898.075 121.736C896.939 121.384 895.979 120.912 895.195 120.32L896.131 117.896C896.915 118.456 897.771 118.888 898.699 119.192C899.643 119.496 900.667 119.648 901.771 119.648C903.035 119.648 903.955 119.44 904.531 119.024C905.107 118.592 905.395 118.04 905.395 117.368C905.395 116.808 905.187 116.368 904.771 116.048C904.371 115.728 903.675 115.464 902.683 115.256L900.043 114.704C897.035 114.064 895.531 112.52 895.531 110.072C895.531 109.016 895.811 108.096 896.371 107.312C896.931 106.528 897.707 105.92 898.699 105.488C899.691 105.056 900.835 104.84 902.131 104.84C903.283 104.84 904.363 105.016 905.371 105.368C906.379 105.704 907.219 106.184 907.891 106.808L906.955 109.112C905.627 107.992 904.011 107.432 902.107 107.432C901.003 107.432 900.139 107.664 899.515 108.128C898.891 108.592 898.579 109.2 898.579 109.952C898.579 110.528 898.771 110.992 899.155 111.344C899.539 111.68 900.195 111.944 901.123 112.136L903.739 112.688C905.323 113.024 906.499 113.552 907.267 114.272C908.051 114.992 908.443 115.952 908.443 117.152C908.443 118.16 908.171 119.048 907.627 119.816C907.083 120.584 906.307 121.184 905.299 121.616C904.307 122.032 903.131 122.24 901.771 122.24ZM915.52 122.24C912.64 122.24 911.2 120.624 911.2 117.392V110.264H914.2V117.44C914.2 118.272 914.368 118.888 914.704 119.288C915.04 119.688 915.576 119.888 916.312 119.888C917.112 119.888 917.768 119.616 918.28 119.072C918.792 118.512 919.048 117.776 919.048 116.864V110.264H922.048V122H919.12V120.248C918.336 121.576 917.136 122.24 915.52 122.24ZM925.65 126.32V110.264H928.578V112.136C928.914 111.496 929.418 110.984 930.09 110.6C930.778 110.216 931.554 110.024 932.418 110.024C933.442 110.024 934.338 110.272 935.106 110.768C935.89 111.264 936.498 111.968 936.93 112.88C937.362 113.776 937.578 114.856 937.578 116.12C937.578 117.368 937.362 118.456 936.93 119.384C936.498 120.296 935.898 121 935.13 121.496C934.362 121.992 933.458 122.24 932.418 122.24C931.586 122.24 930.834 122.064 930.162 121.712C929.506 121.344 929.002 120.856 928.65 120.248V126.32H925.65ZM931.578 119.96C932.474 119.96 933.194 119.64 933.738 119C934.282 118.344 934.554 117.384 934.554 116.12C934.554 114.84 934.282 113.888 933.738 113.264C933.194 112.624 932.474 112.304 931.578 112.304C930.682 112.304 929.962 112.624 929.418 113.264C928.874 113.888 928.602 114.84 928.602 116.12C928.602 117.384 928.874 118.344 929.418 119C929.962 119.64 930.682 119.96 931.578 119.96ZM940.521 126.32V110.264H943.449V112.136C943.785 111.496 944.289 110.984 944.961 110.6C945.649 110.216 946.425 110.024 947.289 110.024C948.313 110.024 949.209 110.272 949.977 110.768C950.761 111.264 951.369 111.968 951.801 112.88C952.233 113.776 952.449 114.856 952.449 116.12C952.449 117.368 952.233 118.456 951.801 119.384C951.369 120.296 950.769 121 950.001 121.496C949.233 121.992 948.329 122.24 947.289 122.24C946.457 122.24 945.705 122.064 945.033 121.712C944.377 121.344 943.873 120.856 943.521 120.248V126.32H940.521ZM946.449 119.96C947.345 119.96 948.065 119.64 948.609 119C949.153 118.344 949.425 117.384 949.425 116.12C949.425 114.84 949.153 113.888 948.609 113.264C948.065 112.624 947.345 112.304 946.449 112.304C945.553 112.304 944.833 112.624 944.289 113.264C943.745 113.888 943.473 114.84 943.473 116.12C943.473 117.384 943.745 118.344 944.289 119C944.833 119.64 945.553 119.96 946.449 119.96ZM960.744 122.24C959.528 122.24 958.472 121.992 957.576 121.496C956.68 121 955.984 120.296 955.488 119.384C954.992 118.456 954.744 117.368 954.744 116.12C954.744 114.872 954.992 113.792 955.488 112.88C955.984 111.968 956.68 111.264 957.576 110.768C958.472 110.272 959.528 110.024 960.744 110.024C961.96 110.024 963.016 110.272 963.912 110.768C964.808 111.264 965.504 111.968 966 112.88C966.496 113.792 966.744 114.872 966.744 116.12C966.744 117.368 966.496 118.456 966 119.384C965.504 120.296 964.808 121 963.912 121.496C963.016 121.992 961.96 122.24 960.744 122.24ZM960.744 119.96C961.64 119.96 962.36 119.64 962.904 119C963.448 118.344 963.72 117.384 963.72 116.12C963.72 114.84 963.448 113.888 962.904 113.264C962.36 112.624 961.64 112.304 960.744 112.304C959.848 112.304 959.128 112.624 958.584 113.264C958.04 113.888 957.768 114.84 957.768 116.12C957.768 117.384 958.04 118.344 958.584 119C959.128 119.64 959.848 119.96 960.744 119.96ZM969.7 122V110.264H972.628V112.328C973.204 110.936 974.436 110.168 976.324 110.024L977.236 109.952L977.428 112.496L975.7 112.664C973.732 112.856 972.748 113.864 972.748 115.688V122H969.7ZM985.634 122.24C982.53 122.24 980.978 120.704 980.978 117.632V112.52H978.722V110.264H980.978V106.76H983.978V110.264H987.53V112.52H983.978V117.464C983.978 118.232 984.146 118.808 984.482 119.192C984.818 119.576 985.362 119.768 986.114 119.768C986.338 119.768 986.57 119.744 986.81 119.696C987.05 119.632 987.298 119.568 987.554 119.504L988.01 121.712C987.722 121.872 987.354 122 986.906 122.096C986.474 122.192 986.05 122.24 985.634 122.24Z" fill="#EB801D"/>
<g filter="url(#filter0_d_4620_215)">
<rect x="621" y="311" width="640" height="72" rx="20" fill="white"/>
</g>
<rect x="1071" y="318" width="180" height="58" rx="20" fill="#686DF1"/>
<path d="M1138.34 354.18C1137.23 354.18 1136.22 354.04 1135.3 353.76C1134.38 353.467 1133.6 353.06 1132.96 352.54L1133.62 350.9C1134.29 351.407 1135 351.787 1135.76 352.04C1136.52 352.293 1137.38 352.42 1138.34 352.42C1139.47 352.42 1140.31 352.22 1140.84 351.82C1141.39 351.407 1141.66 350.873 1141.66 350.22C1141.66 349.687 1141.47 349.267 1141.08 348.96C1140.69 348.64 1140.05 348.387 1139.14 348.2L1137 347.76C1135.73 347.493 1134.79 347.053 1134.16 346.44C1133.55 345.827 1133.24 345 1133.24 343.96C1133.24 343.12 1133.46 342.38 1133.9 341.74C1134.35 341.1 1134.98 340.607 1135.78 340.26C1136.58 339.9 1137.5 339.72 1138.54 339.72C1139.5 339.72 1140.39 339.867 1141.2 340.16C1142.03 340.44 1142.73 340.853 1143.3 341.4L1142.62 342.98C1141.49 341.98 1140.12 341.48 1138.52 341.48C1137.53 341.48 1136.75 341.7 1136.16 342.14C1135.59 342.58 1135.3 343.167 1135.3 343.9C1135.3 344.46 1135.48 344.907 1135.84 345.24C1136.2 345.573 1136.8 345.827 1137.64 346L1139.76 346.44C1141.09 346.72 1142.09 347.153 1142.74 347.74C1143.39 348.313 1143.72 349.093 1143.72 350.08C1143.72 350.907 1143.5 351.627 1143.06 352.24C1142.62 352.853 1142 353.333 1141.2 353.68C1140.4 354.013 1139.45 354.18 1138.34 354.18ZM1149.34 354.18C1146.98 354.18 1145.8 352.867 1145.8 350.24V344.24H1147.82V350.26C1147.82 351.047 1147.98 351.627 1148.3 352C1148.62 352.373 1149.13 352.56 1149.82 352.56C1150.58 352.56 1151.19 352.307 1151.66 351.8C1152.14 351.293 1152.38 350.613 1152.38 349.76V344.24H1154.4V354H1152.44V352.44C1152.12 353.013 1151.69 353.447 1151.16 353.74C1150.63 354.033 1150.02 354.18 1149.34 354.18ZM1162.49 354.18C1161.74 354.18 1161.08 354.013 1160.51 353.68C1159.93 353.347 1159.51 352.9 1159.23 352.34V354H1157.25V339.9H1159.27V345.82C1159.56 345.287 1159.99 344.86 1160.55 344.54C1161.12 344.22 1161.77 344.06 1162.49 344.06C1163.35 344.06 1164.11 344.267 1164.75 344.68C1165.4 345.093 1165.9 345.68 1166.25 346.44C1166.61 347.187 1166.79 348.08 1166.79 349.12C1166.79 350.16 1166.61 351.06 1166.25 351.82C1165.9 352.58 1165.4 353.167 1164.75 353.58C1164.11 353.98 1163.35 354.18 1162.49 354.18ZM1161.99 352.62C1162.83 352.62 1163.49 352.32 1163.99 351.72C1164.49 351.12 1164.75 350.253 1164.75 349.12C1164.75 347.987 1164.49 347.127 1163.99 346.54C1163.49 345.94 1162.83 345.64 1161.99 345.64C1161.15 345.64 1160.47 345.94 1159.97 346.54C1159.47 347.127 1159.23 347.987 1159.23 349.12C1159.23 350.253 1159.47 351.12 1159.97 351.72C1160.47 352.32 1161.15 352.62 1161.99 352.62ZM1172.48 354.18C1171.68 354.18 1170.94 354.08 1170.24 353.88C1169.55 353.667 1168.97 353.373 1168.5 353L1169.08 351.64C1169.58 351.987 1170.12 352.253 1170.7 352.44C1171.3 352.627 1171.9 352.72 1172.5 352.72C1173.21 352.72 1173.74 352.593 1174.1 352.34C1174.46 352.087 1174.64 351.747 1174.64 351.32C1174.64 350.973 1174.52 350.707 1174.28 350.52C1174.04 350.32 1173.68 350.167 1173.2 350.06L1171.3 349.68C1169.62 349.333 1168.78 348.467 1168.78 347.08C1168.78 346.16 1169.15 345.427 1169.88 344.88C1170.62 344.333 1171.58 344.06 1172.76 344.06C1173.44 344.06 1174.09 344.16 1174.7 344.36C1175.33 344.56 1175.85 344.86 1176.26 345.26L1175.68 346.62C1175.28 346.273 1174.82 346.007 1174.3 345.82C1173.78 345.633 1173.27 345.54 1172.76 345.54C1172.07 345.54 1171.54 345.673 1171.18 345.94C1170.82 346.193 1170.64 346.54 1170.64 346.98C1170.64 347.647 1171.08 348.073 1171.96 348.26L1173.86 348.64C1174.73 348.813 1175.38 349.107 1175.82 349.52C1176.28 349.933 1176.5 350.493 1176.5 351.2C1176.5 352.133 1176.14 352.867 1175.4 353.4C1174.67 353.92 1173.7 354.18 1172.48 354.18ZM1183.05 354.18C1182.05 354.18 1181.19 353.973 1180.45 353.56C1179.73 353.133 1179.17 352.54 1178.77 351.78C1178.37 351.007 1178.17 350.1 1178.17 349.06C1178.17 347.513 1178.61 346.293 1179.49 345.4C1180.37 344.507 1181.56 344.06 1183.05 344.06C1183.67 344.06 1184.27 344.167 1184.87 344.38C1185.47 344.593 1185.97 344.887 1186.35 345.26L1185.71 346.68C1185.34 346.333 1184.93 346.08 1184.47 345.92C1184.03 345.747 1183.61 345.66 1183.21 345.66C1182.27 345.66 1181.53 345.96 1181.01 346.56C1180.51 347.147 1180.25 347.987 1180.25 349.08C1180.25 350.173 1180.51 351.033 1181.01 351.66C1181.53 352.273 1182.27 352.58 1183.21 352.58C1183.61 352.58 1184.03 352.5 1184.47 352.34C1184.93 352.167 1185.34 351.907 1185.71 351.56L1186.35 353C1185.97 353.36 1185.47 353.647 1184.85 353.86C1184.25 354.073 1183.65 354.18 1183.05 354.18ZM1188.09 354V344.24H1190.05V345.98C1190.55 344.82 1191.61 344.173 1193.21 344.04L1193.87 344L1194.01 345.72L1192.79 345.84C1191.01 346.013 1190.13 346.927 1190.13 348.58V354H1188.09ZM1195.37 341.98V339.88H1197.73V341.98H1195.37ZM1195.55 354V344.24H1197.57V354H1195.55ZM1205.65 354.18C1204.91 354.18 1204.25 354.013 1203.67 353.68C1203.1 353.347 1202.67 352.9 1202.39 352.34V354H1200.41V339.9H1202.43V345.82C1202.73 345.287 1203.15 344.86 1203.71 344.54C1204.29 344.22 1204.93 344.06 1205.65 344.06C1206.52 344.06 1207.27 344.267 1207.91 344.68C1208.57 345.093 1209.07 345.68 1209.41 346.44C1209.77 347.187 1209.95 348.08 1209.95 349.12C1209.95 350.16 1209.77 351.06 1209.41 351.82C1209.07 352.58 1208.57 353.167 1207.91 353.58C1207.27 353.98 1206.52 354.18 1205.65 354.18ZM1205.15 352.62C1205.99 352.62 1206.66 352.32 1207.15 351.72C1207.66 351.12 1207.91 350.253 1207.91 349.12C1207.91 347.987 1207.66 347.127 1207.15 346.54C1206.66 345.94 1205.99 345.64 1205.15 345.64C1204.31 345.64 1203.64 345.94 1203.13 346.54C1202.64 347.127 1202.39 347.987 1202.39 349.12C1202.39 350.253 1202.64 351.12 1203.13 351.72C1203.64 352.32 1204.31 352.62 1205.15 352.62ZM1216.81 354.18C1215.21 354.18 1213.95 353.733 1213.03 352.84C1212.11 351.933 1211.65 350.7 1211.65 349.14C1211.65 348.14 1211.85 347.26 1212.25 346.5C1212.66 345.727 1213.23 345.127 1213.95 344.7C1214.67 344.273 1215.5 344.06 1216.43 344.06C1217.78 344.06 1218.84 344.493 1219.61 345.36C1220.38 346.213 1220.77 347.393 1220.77 348.9V349.58H1213.61C1213.76 351.607 1214.83 352.62 1216.83 352.62C1217.39 352.62 1217.94 352.533 1218.47 352.36C1219.02 352.187 1219.53 351.9 1220.01 351.5L1220.61 352.9C1220.17 353.3 1219.6 353.613 1218.91 353.84C1218.22 354.067 1217.52 354.18 1216.81 354.18ZM1216.51 345.48C1215.67 345.48 1215 345.74 1214.51 346.26C1214.02 346.78 1213.72 347.473 1213.61 348.34H1219.07C1219.03 347.433 1218.79 346.733 1218.35 346.24C1217.91 345.733 1217.3 345.48 1216.51 345.48Z" fill="white"/>
<path d="M701.387 354V347.32L695.987 339.9H697.907L702.247 345.88L706.567 339.9H708.427L703.027 347.36V354H701.387ZM712.539 354.18C711.592 354.18 710.772 353.973 710.079 353.56C709.386 353.147 708.846 352.567 708.459 351.82C708.086 351.06 707.899 350.167 707.899 349.14C707.899 348.113 708.086 347.227 708.459 346.48C708.846 345.72 709.386 345.133 710.079 344.72C710.772 344.307 711.592 344.1 712.539 344.1C713.472 344.1 714.286 344.307 714.979 344.72C715.686 345.133 716.226 345.72 716.599 346.48C716.986 347.227 717.179 348.113 717.179 349.14C717.179 350.167 716.986 351.06 716.599 351.82C716.226 352.567 715.686 353.147 714.979 353.56C714.286 353.973 713.472 354.18 712.539 354.18ZM712.539 352.88C713.446 352.88 714.172 352.56 714.719 351.92C715.266 351.267 715.539 350.34 715.539 349.14C715.539 347.927 715.266 347 714.719 346.36C714.172 345.72 713.446 345.4 712.539 345.4C711.619 345.4 710.886 345.72 710.339 346.36C709.806 347 709.539 347.927 709.539 349.14C709.539 350.34 709.806 351.267 710.339 351.92C710.886 352.56 711.619 352.88 712.539 352.88ZM723.452 354.18C721.119 354.18 719.952 352.893 719.952 350.32V344.28H721.572V350.3C721.572 351.167 721.746 351.807 722.092 352.22C722.452 352.633 723.012 352.84 723.772 352.84C724.599 352.84 725.272 352.567 725.792 352.02C726.312 351.46 726.572 350.72 726.572 349.8V344.28H728.192V354H726.612V352.36C726.306 352.947 725.872 353.4 725.312 353.72C724.766 354.027 724.146 354.18 723.452 354.18ZM731.623 354V344.28H733.203V346.02C733.723 344.847 734.79 344.2 736.403 344.08L736.983 344.02L737.103 345.42L736.083 345.54C735.163 345.62 734.463 345.913 733.983 346.42C733.503 346.913 733.263 347.593 733.263 348.46V354H731.623ZM749.108 354.18C747.574 354.18 746.361 353.733 745.468 352.84C744.574 351.933 744.128 350.707 744.128 349.16C744.128 348.16 744.328 347.28 744.728 346.52C745.128 345.747 745.674 345.153 746.368 344.74C747.074 344.313 747.888 344.1 748.808 344.1C750.128 344.1 751.161 344.527 751.908 345.38C752.654 346.22 753.028 347.38 753.028 348.86V349.48H745.708C745.761 350.587 746.081 351.433 746.668 352.02C747.254 352.593 748.068 352.88 749.108 352.88C749.694 352.88 750.254 352.793 750.788 352.62C751.321 352.433 751.828 352.133 752.308 351.72L752.868 352.86C752.428 353.273 751.868 353.6 751.188 353.84C750.508 354.067 749.814 354.18 749.108 354.18ZM748.848 345.3C747.928 345.3 747.201 345.587 746.668 346.16C746.134 346.733 745.821 347.487 745.728 348.42H751.628C751.588 347.433 751.328 346.667 750.848 346.12C750.381 345.573 749.714 345.3 748.848 345.3ZM755.812 354V344.28H757.392V345.92C757.686 345.333 758.092 344.887 758.612 344.58C759.132 344.26 759.739 344.1 760.432 344.1C761.952 344.1 762.926 344.76 763.352 346.08C763.646 345.467 764.079 344.987 764.652 344.64C765.226 344.28 765.886 344.1 766.632 344.1C768.792 344.1 769.872 345.38 769.872 347.94V354H768.252V348.02C768.252 347.127 768.092 346.473 767.772 346.06C767.466 345.633 766.952 345.42 766.232 345.42C765.446 345.42 764.819 345.7 764.352 346.26C763.886 346.82 763.652 347.567 763.652 348.5V354H762.032V348.02C762.032 347.127 761.872 346.473 761.552 346.06C761.246 345.633 760.732 345.42 760.012 345.42C759.212 345.42 758.579 345.7 758.112 346.26C757.659 346.82 757.432 347.567 757.432 348.5V354H755.812ZM776.361 354.18C775.695 354.18 775.095 354.053 774.561 353.8C774.041 353.533 773.628 353.173 773.321 352.72C773.015 352.267 772.861 351.76 772.861 351.2C772.861 350.493 773.041 349.933 773.401 349.52C773.775 349.107 774.381 348.813 775.221 348.64C776.075 348.453 777.235 348.36 778.701 348.36H779.341V347.74C779.341 346.913 779.168 346.32 778.821 345.96C778.488 345.587 777.948 345.4 777.201 345.4C776.615 345.4 776.048 345.487 775.501 345.66C774.955 345.82 774.395 346.087 773.821 346.46L773.261 345.28C773.768 344.92 774.381 344.633 775.101 344.42C775.835 344.207 776.535 344.1 777.201 344.1C778.455 344.1 779.381 344.407 779.981 345.02C780.595 345.633 780.901 346.587 780.901 347.88V354H779.381V352.32C779.128 352.893 778.735 353.347 778.201 353.68C777.681 354.013 777.068 354.18 776.361 354.18ZM776.621 352.96C777.421 352.96 778.075 352.687 778.581 352.14C779.088 351.58 779.341 350.873 779.341 350.02V349.42H778.721C777.641 349.42 776.788 349.473 776.161 349.58C775.548 349.673 775.115 349.847 774.861 350.1C774.621 350.34 774.501 350.673 774.501 351.1C774.501 351.647 774.688 352.093 775.061 352.44C775.448 352.787 775.968 352.96 776.621 352.96ZM784.107 341.86V340.04H786.107V341.86H784.107ZM784.307 354V344.28H785.927V354H784.307ZM792.335 354.18C791.348 354.18 790.602 353.893 790.095 353.32C789.602 352.733 789.355 351.887 789.355 350.78V339.9H790.975V350.66C790.975 352.087 791.542 352.8 792.675 352.8C793.008 352.8 793.308 352.76 793.575 352.68L793.535 354.04C793.122 354.133 792.722 354.18 792.335 354.18Z" fill="#9092B0"/>
<g clip-path="url(#clip0_4620_215)">
<path d="M663.909 347.123L672 352.238V341.792L663.909 347.123Z" fill="#9092B0"/>
<path d="M648 341.792V352.238L656.091 347.123L648 341.792Z" fill="#9092B0"/>
<path d="M670.5 338.75H649.5C648.751 338.75 648.157 339.308 648.045 340.026L660 347.903L671.955 340.026C671.842 339.308 671.248 338.75 670.5 338.75Z" fill="#9092B0"/>
<path d="M662.535 348.029L660.413 349.427C660.287 349.509 660.144 349.55 660 349.55C659.856 349.55 659.714 349.509 659.588 349.427L657.465 348.027L648.048 353.984C648.164 354.696 648.755 355.25 649.5 355.25H670.5C671.246 355.25 671.837 354.696 671.952 353.984L662.535 348.029Z" fill="#9092B0"/>
</g>
<g clip-path="url(#clip1_4620_215)">
<path d="M1110.24 337.807L1094.82 345.333C1094.17 345.65 1093.76 346.296 1093.75 347.019C1093.75 347.742 1094.14 348.396 1094.79 348.725L1099.87 351.33L1104.44 346.153C1104.65 345.915 1105.01 345.893 1105.25 346.103C1105.49 346.314 1105.51 346.677 1105.3 346.916L1100.73 352.093L1103.94 356.812C1104.35 357.41 1105.05 357.721 1105.76 357.625C1106.48 357.528 1107.07 357.043 1107.3 356.36L1112.87 340.127C1113.12 339.388 1112.91 338.607 1112.33 338.09C1111.74 337.573 1110.94 337.464 1110.24 337.807Z" fill="white"/>
</g>
<defs>
<filter id="filter0_d_4620_215" x="601" y="301" width="680" height="112" filterUnits="userSpaceOnUse" color-interpolation-filters="sRGB">
<feFlood flood-opacity="0" result="BackgroundImageFix"/>
<feColorMatrix in="SourceAlpha" type="matrix" values="0 0 0 0 0 0 0 0 0 0 0 0 0 0 0 0 0 0 127 0" result="hardAlpha"/>
<feOffset dy="10"/>
<feGaussianBlur stdDeviation="10"/>
<feColorMatrix type="matrix" values="0 0 0 0 0.21266 0 0 0 0 0.228796 0 0 0 0 0.470833 0 0 0 0.1 0"/>
<feBlend mode="normal" in2="BackgroundImageFix" result="effect1_dropShadow_4620_215"/>
<feBlend mode="normal" in="SourceGraphic" in2="effect1_dropShadow_4620_215" result="shape"/>
</filter>
<clipPath id="clip0_4620_215">
<rect width="24" height="24" fill="white" transform="translate(648 335)"/>
</clipPath>
<clipPath id="clip1_4620_215">
<rect width="19.6445" height="19.6445" fill="white" transform="translate(1091.96 346.311) rotate(-48.5475)"/>
</clipPath>
</defs>
</svg>
